<?xml version="1.0" standalone="no"?>
<!DOCTYPE svg PUBLIC "-//W3C//DTD SVG 20010904//EN"
 "http://www.w3.org/TR/2001/REC-SVG-20010904/DTD/svg10.dtd">
<svg version="1.0" xmlns="http://www.w3.org/2000/svg"
 width="2032.000000pt" height="2032.000000pt" viewBox="0 0 2032.000000 2032.000000"
 preserveAspectRatio="xMidYMid meet">
<metadata>
Created by potrace 1.14, written by Peter Selinger 2001-2017
</metadata>
<g transform="translate(0.000000,2032.000000) scale(0.100000,-0.100000)"
fill="#000000" stroke="none">
<path d="M13675 16495 c-27 -8 -59 -14 -70 -15 -51 -1 -203 -74 -296 -141
-147 -108 -235 -234 -307 -439 -25 -71 -26 -86 -27 -265 0 -182 1 -193 28
-269 52 -150 104 -235 204 -338 69 -72 184 -156 237 -174 33 -12 449 -224 465
-237 9 -7 27 -19 41 -25 72 -36 296 -182 439 -286 284 -208 645 -549 826 -781
38 -49 74 -84 86 -85 8 0 96 111 151 190 40 59 72 112 108 181 7 13 17 31 22
39 4 8 13 26 18 40 6 14 17 39 24 55 56 120 112 322 127 450 4 44 13 121 18
171 10 88 6 174 -18 369 -13 105 -64 307 -96 380 -7 17 -23 55 -35 85 -116
288 -366 590 -655 792 -143 99 -398 218 -550 255 -108 27 -137 33 -220 48
-117 20 -447 20 -520 0z"/>
<path d="M7080 15326 c-20 -8 -55 -17 -79 -21 -23 -4 -55 -13 -69 -21 -15 -8
-36 -14 -48 -14 -11 0 -29 -7 -40 -15 -10 -8 -25 -15 -33 -15 -23 0 -203 -88
-271 -131 -14 -9 -56 -37 -95 -62 -78 -50 -237 -186 -305 -262 -65 -72 -140
-162 -165 -198 -73 -110 -205 -356 -205 -385 0 -6 -6 -23 -14 -39 -14 -28 -42
-117 -69 -223 -45 -173 -59 -466 -32 -650 19 -129 48 -258 76 -340 43 -126 53
-150 103 -251 85 -169 193 -323 314 -447 29 -29 52 -62 52 -72 0 -12 -19 -30
-52 -50 -83 -49 -256 -174 -373 -269 -366 -299 -704 -671 -963 -1060 -54 -81
-102 -154 -106 -162 -4 -8 -17 -31 -29 -51 -60 -99 -155 -278 -218 -408 -88
-182 -92 -191 -124 -270 -14 -36 -33 -79 -41 -97 -8 -17 -14 -37 -14 -45 0 -8
-4 -18 -9 -23 -9 -10 -43 -99 -61 -160 -4 -16 -22 -70 -39 -120 -42 -120 -58
-173 -66 -213 -4 -18 -13 -45 -21 -60 -8 -15 -14 -39 -14 -54 0 -15 -7 -45
-15 -65 -8 -21 -19 -60 -24 -88 -6 -27 -15 -72 -21 -100 -11 -48 -34 -159 -60
-290 -6 -33 -16 -97 -21 -142 -4 -45 -13 -103 -20 -130 -6 -26 -14 -109 -19
-183 -5 -74 -14 -198 -20 -274 -7 -97 -7 -191 0 -305 5 -91 14 -236 20 -321 5
-85 16 -191 25 -235 8 -44 15 -98 15 -120 0 -22 5 -57 11 -78 5 -21 17 -77 25
-125 24 -149 43 -242 52 -260 5 -9 12 -37 16 -62 4 -25 13 -65 21 -90 35 -114
55 -186 55 -197 0 -7 6 -27 14 -45 7 -18 25 -69 39 -113 38 -117 48 -145 68
-195 10 -25 29 -74 43 -110 83 -217 219 -501 334 -697 15 -26 31 -55 35 -63 8
-16 10 -19 72 -120 104 -172 358 -527 434 -609 l29 -31 806 0 807 0 18 43 c10
23 22 58 25 77 4 19 13 55 21 80 43 144 109 451 125 590 5 41 14 97 20 125 6
27 14 98 19 157 4 60 14 114 21 123 11 13 56 15 330 15 289 0 318 -2 332 -17
8 -10 57 -90 108 -178 51 -88 108 -185 128 -215 90 -139 193 -292 247 -368 33
-46 75 -104 92 -129 65 -90 167 -219 207 -261 l40 -42 1078 0 1077 0 20 21
c23 24 31 45 60 154 12 44 29 103 36 130 14 50 26 100 45 178 6 23 15 62 22
87 10 43 22 100 47 235 7 33 18 92 26 130 8 39 17 99 21 135 3 36 12 90 20
121 8 31 14 83 14 115 1 33 7 95 15 139 9 44 18 143 21 220 4 77 11 148 16
158 8 16 34 17 328 17 l320 0 4 -22 c17 -89 37 -216 45 -288 5 -47 14 -98 20
-113 6 -16 11 -47 11 -70 0 -23 9 -75 20 -116 11 -41 20 -86 20 -99 0 -14 6
-48 14 -76 8 -28 24 -96 36 -151 12 -55 29 -118 36 -140 8 -23 14 -47 14 -55
0 -14 29 -120 52 -185 5 -16 16 -52 23 -80 7 -27 18 -63 24 -80 39 -109 74
-214 80 -240 12 -47 48 -112 66 -119 9 -3 437 -6 951 -6 l935 0 30 32 c33 37
197 300 272 438 16 30 33 60 37 65 27 36 310 601 310 618 0 4 13 35 28 69 16
35 39 88 51 118 13 30 29 69 36 85 7 17 18 44 23 60 6 17 20 55 32 85 51 131
153 438 196 590 7 25 22 77 33 116 12 39 21 81 21 93 0 12 5 31 10 42 6 10 15
45 21 76 6 32 16 81 24 108 18 67 54 248 76 385 5 36 14 88 19 115 5 28 14 91
20 140 6 50 17 134 25 187 8 53 15 125 15 160 0 35 7 126 15 203 18 165 21
823 5 950 -5 44 -14 152 -20 240 -5 88 -14 178 -20 200 -5 22 -10 54 -10 72 0
17 -4 34 -9 37 -5 3 -71 -56 -147 -131 -160 -157 -471 -410 -612 -498 -9 -5
-38 -25 -64 -42 -26 -18 -51 -33 -55 -33 -3 0 -14 -6 -22 -14 -9 -8 -39 -27
-67 -42 -29 -16 -80 -45 -115 -66 -132 -75 -443 -225 -599 -288 -30 -12 -67
-29 -82 -36 -14 -8 -31 -14 -38 -14 -7 0 -26 -7 -43 -15 -43 -19 -114 -44
-158 -55 -19 -5 -49 -16 -65 -25 -16 -8 -37 -15 -47 -15 -10 0 -30 -6 -45 -14
-15 -7 -43 -17 -62 -20 -19 -4 -51 -13 -70 -20 -34 -13 -66 -22 -180 -51 -30
-8 -75 -19 -100 -25 -25 -7 -67 -18 -95 -25 -27 -8 -68 -16 -90 -20 -22 -3
-65 -12 -95 -20 -54 -13 -114 -24 -255 -45 -38 -6 -104 -17 -145 -25 -41 -8
-106 -17 -145 -20 -38 -3 -108 -12 -154 -20 -46 -8 -116 -15 -155 -15 -39 0
-134 -7 -211 -15 -190 -20 -723 -20 -905 0 -74 8 -164 15 -200 15 -36 0 -116
9 -179 20 -62 11 -132 20 -155 20 -23 0 -57 5 -76 10 -19 6 -66 15 -105 20
-63 9 -123 21 -255 52 -25 6 -72 16 -105 22 -33 7 -70 18 -82 24 -12 7 -32 12
-44 12 -20 0 -100 22 -184 51 -16 6 -48 15 -70 20 -21 6 -44 14 -50 18 -5 5
-26 12 -45 16 -19 4 -45 13 -57 21 -12 8 -29 14 -37 14 -9 0 -35 9 -58 19 -24
11 -68 29 -98 41 -30 12 -68 27 -85 35 -16 8 -57 26 -90 41 -114 50 -299 146
-375 194 -8 5 -40 24 -69 42 -337 198 -697 525 -941 852 -108 144 -254 400
-308 541 -13 33 -30 74 -37 90 -28 58 -68 182 -90 277 -7 31 -16 61 -19 67 -4
6 -13 48 -21 93 -8 46 -19 106 -25 133 -18 96 -41 371 -40 490 0 66 7 170 15
230 8 61 15 133 15 162 0 28 9 89 20 135 11 46 20 96 20 112 0 15 6 49 14 75
15 46 26 90 51 191 7 30 18 70 24 88 26 78 32 94 43 125 26 74 80 214 93 242
62 136 98 213 106 228 6 10 31 58 56 105 25 48 56 105 69 127 13 22 27 47 32
55 40 76 211 327 310 455 132 171 184 230 400 453 242 251 322 459 293 767
-25 262 -172 501 -399 649 -40 26 -88 52 -105 58 -18 6 -36 14 -42 18 -5 4
-39 16 -75 26 -84 24 -366 30 -420 10z"/>
<path d="M12695 13001 c-55 -4 -106 -10 -113 -14 -6 -5 -40 -14 -74 -22 -171
-38 -313 -113 -440 -233 -65 -62 -158 -193 -158 -223 0 -8 -4 -19 -10 -25 -5
-5 -19 -45 -30 -88 -58 -227 9 -497 184 -745 70 -100 233 -266 331 -339 39
-28 88 -65 111 -82 43 -31 84 -40 84 -16 0 7 -5 27 -11 44 -14 39 13 174 47
244 31 61 126 164 178 191 131 68 255 83 372 44 87 -29 140 -63 192 -123 36
-42 52 -70 106 -183 6 -14 11 -72 11 -135 -1 -108 -2 -113 -39 -189 -25 -49
-58 -97 -90 -128 -37 -36 -47 -52 -39 -60 32 -32 511 -27 617 6 27 8 59 15 70
15 12 1 39 9 61 20 22 11 45 19 52 20 15 0 144 66 203 104 25 16 77 62 117
102 116 117 174 236 194 397 20 167 -12 344 -91 499 -115 226 -283 408 -545
589 -84 59 -170 105 -310 168 -96 43 -114 50 -180 71 -38 12 -83 27 -100 32
-16 6 -52 14 -80 19 -27 5 -77 15 -110 23 -71 18 -365 27 -510 17z"/>
<path d="M9680 12250 c-25 -4 -58 -12 -73 -18 -16 -7 -38 -12 -50 -12 -19 0
-74 -19 -162 -55 -437 -182 -823 -552 -1027 -985 -63 -135 -92 -218 -124 -360
-27 -120 -27 -398 -1 -485 52 -167 109 -266 208 -361 58 -54 173 -134 195
-134 5 0 31 -9 59 -19 27 -10 73 -24 100 -31 74 -19 269 -24 340 -10 33 7 89
18 125 24 36 7 75 18 87 24 12 7 31 12 42 12 12 0 38 9 58 20 21 11 43 20 48
20 6 0 49 20 96 44 46 25 98 52 114 60 66 35 90 53 93 74 3 17 -3 22 -33 28
-96 18 -217 124 -275 240 -33 67 -34 73 -34 189 -1 122 1 130 48 235 17 39
128 143 177 166 120 57 225 74 309 49 30 -9 66 -19 80 -23 41 -12 137 -81 181
-130 42 -48 89 -136 89 -166 0 -28 32 -32 49 -7 23 34 76 128 106 191 15 30
31 62 35 71 28 56 86 227 95 284 4 22 14 65 21 95 23 92 18 302 -10 412 -51
203 -147 345 -301 449 -71 49 -182 94 -265 109 -54 10 -336 10 -400 0z"/>
<path d="M12475 9985 c-70 -15 -105 -28 -270 -105 -158 -73 -204 -92 -300
-123 -61 -20 -227 -36 -435 -42 -300 -9 -371 -27 -420 -108 -25 -41 -25 -78 1
-152 61 -173 272 -374 504 -479 33 -15 69 -32 80 -38 11 -6 36 -15 55 -19 19
-4 55 -15 80 -24 34 -13 79 -17 180 -18 118 0 141 2 182 21 26 12 49 22 52 22
3 0 38 22 78 50 153 104 290 265 374 440 42 88 51 112 64 160 6 25 15 61 20
80 16 60 11 157 -10 218 -22 63 -76 122 -112 122 -13 0 -32 2 -43 4 -11 2 -47
-2 -80 -9z"/>
</g>
</svg>
